<?xml version="1.0" encoding="utf-8"?>
<!-- Generator: Adobe Illustrator 28.0.0, SVG Export Plug-In . SVG Version: 6.00 Build 0)  -->
<svg version="1.1" id="Layer_1" xmlns="http://www.w3.org/2000/svg" xmlns:xlink="http://www.w3.org/1999/xlink" x="0px" y="0px"
	 viewBox="0 0 566.3 160" style="enable-background:new 0 0 566.3 160;" xml:space="preserve">
<style type="text/css">
	.st0{fill:#FAF7E9;}
	.st1{fill:#F3BA19;}
	.st2{fill:none;stroke:#200D37;stroke-miterlimit:10;}
</style>
<g>
	<g>
		<path class="st0" d="M1193.3,1414.4l-122.6,104.2c-3.2,2.7-7.5,2.7-9.8,0l-85.8-104.2c-3.2-3.9-8.1-6.1-13.6-6.1h-14
			c-11.1,0-21.8,9-23.7,20.2l-4.1,23.5c-1,5.5,0.3,10.8,3.5,14.6l113,137.1c6.7,8.1,19.8,8.1,29.3,0l78.6-66.9
			c5.1-4.3,12-1.3,10.9,4.9l-9.9,55.9c-2,11.4,5.6,20.7,17.1,20.7h27.8c11.4,0,22.3-9.3,24.4-20.7l29.7-168.6
			c2-11.4-5.6-20.7-17.1-20.7h-18C1203.5,1408.3,1197.9,1410.5,1193.3,1414.4z"/>
		<path class="st0" d="M1459.7,1618.2H1257c-11.4,0-19.1-9.3-17.1-20.7l43.4-245.9c2-11.4,12.9-20.7,24.4-20.7h25.7
			c11.4,0,19.1,9.3,17.1,20.7l-5.8,33.1c-1.3,7.6,3.7,13.8,11.3,13.8l103.1,0.8c92.6,0.8,137.8,118.3,20.9,211.5
			C1473.9,1615.6,1466.7,1618.2,1459.7,1618.2z M1322.2,1551.1h123.4c3.6,0,7.4-1.5,10.4-4c43.4-35.9,26-80.3-9.5-80.7l-102.4-0.8
			c-7.7-0.1-15,6.1-16.3,13.8l-11.4,64.7C1315.8,1548,1318.3,1551.1,1322.2,1551.1z"/>
		<path class="st0" d="M1772.3,1399.3l-96.1-0.5c-11.5-0.1-22.4,9.2-24.5,20.7l-5.7,32.2c-1.3,7.6-8.6,13.8-16.2,13.8h-32.6
			c-11.4,0-22.3,9.3-24.4,20.7l-19.6,111.2c-2,11.4,5.6,20.7,17.1,20.7H1773c7,0,14.2-2.6,20.2-7.4
			C1910.1,1517.6,1864.9,1400.2,1772.3,1399.3z M1759.9,1466.5c35.4,0.3,52.9,44.8,9.5,80.7c-3.1,2.5-6.8,4-10.4,4h-123.4
			c-3.8,0-6.4-3.1-5.7-6.9l11.4-64.7c1.4-7.6,8.6-13.8,16.3-13.8C1688.3,1465.9,1759.9,1466.5,1759.9,1466.5z"/>
		<path class="st1" d="M935.7,1528.4l35.5,42.8c14.4,17.4-3.2,47.2-27.8,47.2h-35.7c-9.5,0-15.9-7.7-14.2-17.3l10.7-60.5
			C906.8,1525.3,926.7,1517.6,935.7,1528.4z"/>
	</g>
	<g>
		<g>
			<path class="st0" d="M1999.8,1461.3c3-17.2,6.7-36.5,9.2-47.9h-0.7c-8.4,20.6-24.4,54.2-39.6,85.7h-18.6c-2.5-27.6-6.2-65.9-7-86
				h-0.7c-1.2,11.8-4.5,32.6-7.5,49.9l-6.4,36.1h-19.9l17.8-100.9h32.5c3.2,26.4,6.2,59.4,6.6,74.4h0.2
				c4.8-13.3,22.1-48.6,35.1-74.4h31.3l-17.8,100.9h-21L1999.8,1461.3z"/>
			<path class="st0" d="M2105.8,1455.6h-48.2l-4.5,25.6h53.2l-5.7,17.9h-71.8l17.8-100.9h71.5l-3.2,17.9h-50.4l-3.8,21.6h48.2
				L2105.8,1455.6z"/>
			<path class="st0" d="M2126.6,1398.2h40c29.4,0,45.2,19.3,39.9,49.2c-5.2,29.4-27.7,51.7-58.6,51.7h-39.1L2126.6,1398.2z
				 M2133.7,1481.5h16.4c19.3,0,30.4-14.4,33.9-34c2.9-16.5-2.4-31.6-22.2-31.6h-16.5L2133.7,1481.5z"/>
			<path class="st0" d="M2255,1398.2h44.1c24.4,0,31.4,12.7,29.1,25.8c-2,11.4-9.3,18.7-16.7,21.9c6.3,2.6,14,9.7,11.7,23
				c-3,17.3-18.9,30.2-40.3,30.2h-45.5L2255,1398.2z M2261.6,1482.3h19.7c11.8,0,18-4.9,19.6-14.1c1.4-8.1-2.9-13.3-14.9-13.3h-19.6
				L2261.6,1482.3z M2289.6,1438c10.4,0,15.5-4.7,16.7-11.7c1.3-7.4-3.6-11.2-12-11.2h-20.8l-4,22.9L2289.6,1438L2289.6,1438z"/>
			<path class="st0" d="M2355.8,1458.7l-7.1,40.4h-21.3l17.8-100.9h44.3c22,0,31.7,12.1,28.9,27.7c-2.4,13.5-11,20.9-18.9,23.9
				c4.7,1.8,11.3,7,8.1,25.1l-0.9,5c-1.2,6.8-2.5,14.5-1.9,19.2h-20.7c-1-4.4,0-11.9,1.9-22.6l0.3-1.5c1.9-11,0.1-16.2-16.2-16.2
				L2355.8,1458.7L2355.8,1458.7z M2358.8,1441.4h18.3c11.9,0,17.3-4.5,18.8-13c1.4-8.2-3.1-12.8-13.8-12.8h-18.8L2358.8,1441.4z"/>
			<path class="st0" d="M2440,1475.8l-12,23.3h-21.4l52-100.9h27.4l17.9,100.9H2481l-4.2-23.3H2440z M2475.3,1457.9
				c-3.4-21.3-5.6-34.9-6.4-43.9h-0.1c-4.2,9.9-12.1,25.8-21,43.9H2475.3z"/>
			<path class="st0" d="M2595.8,1468c-7.4,18.8-24,32.5-49.2,32.5c-32,0-43.1-22.6-38.1-51.3c4.9-27.6,24.8-52.4,57.4-52.4
				c26.9,0,37.1,15.8,36.6,32.6h-21.8c-0.7-7.8-4.8-15.5-18.5-15.5c-18,0-27.8,16.2-31,34.5c-3,17-0.1,35,19.3,35
				c14.2,0,20.4-9.5,23.3-15.4L2595.8,1468L2595.8,1468z"/>
			<path class="st0" d="M2676.9,1455.6h-48.2l-4.5,25.6h53.2l-5.7,17.9h-71.8l17.8-100.9h71.5l-3.2,17.9h-50.4l-3.8,21.6h48.2
				L2676.9,1455.6z"/>
			<path class="st0" d="M2699.9,1469.5c0.5,10.1,7,14.6,18.7,14.6c11.6,0,17.4-4.6,18.7-12c1.4-8.2-2.8-11.8-19.3-15.8
				c-26.3-6.4-31.3-16.4-28.9-30c3.1-17.6,18.4-29.5,42.2-29.5c26.8,0,34.9,14.4,33.8,29.1h-22c0-6.2-2.2-12.9-15.2-12.9
				c-8.8,0-14.8,3.7-16.1,10.8c-1.2,7,2.5,9.9,18.2,13.6c28.1,6.9,32.6,17.8,30.1,32c-3.2,18.4-19.4,31-46.1,31
				c-25.6,0-36.9-12.6-36-31h21.9V1469.5z"/>
			<path class="st0" d="M1905.6,1516.1h40c29.4,0,45.2,19.3,39.9,49.2c-5.2,29.4-27.7,51.7-58.6,51.7h-39.1L1905.6,1516.1z
				 M1912.7,1599.4h16.4c19.3,0,30.4-14.4,33.9-34c2.9-16.5-2.4-31.6-22.2-31.6h-16.5L1912.7,1599.4z"/>
			<path class="st0" d="M2026.2,1516.1l-17.8,100.9h-21.8l17.8-100.9H2026.2z"/>
			<path class="st0" d="M2051,1576.6l-7.1,40.4h-21.3l17.8-100.9h44.3c22,0,31.7,12.1,28.9,27.7c-2.4,13.5-11,20.9-18.9,23.9
				c4.7,1.8,11.3,7,8.1,25.1l-0.9,5c-1.2,6.8-2.5,14.5-1.9,19.2h-20.7c-1-4.4,0-11.9,1.9-22.6l0.3-1.5c1.9-11,0.1-16.2-16.2-16.2
				L2051,1576.6L2051,1576.6z M2054,1559.3h18.3c11.9,0,17.3-4.5,18.8-13c1.4-8.2-3.1-12.8-13.8-12.8h-18.8L2054,1559.3z"/>
			<path class="st0" d="M2187.8,1573.5h-48.2l-4.5,25.6h53.2l-5.7,17.9h-71.8l17.8-100.9h71.5l-3.2,17.9h-50.4l-3.8,21.6h48.2
				L2187.8,1573.5z"/>
			<path class="st0" d="M2282.5,1585.9c-7.4,18.8-24,32.5-49.2,32.5c-32,0-43.1-22.6-38.1-51.3c4.9-27.6,24.8-52.4,57.4-52.4
				c26.9,0,37.1,15.8,36.6,32.6h-21.8c-0.7-7.8-4.8-15.5-18.5-15.5c-18,0-27.8,16.2-31,34.5c-3,17-0.1,35,19.3,35
				c14.2,0,20.4-9.5,23.3-15.4L2282.5,1585.9L2282.5,1585.9z"/>
			<path class="st0" d="M2322,1534h-30.6l3.2-17.9h83l-3.2,17.9h-30.5l-14.6,83h-21.8L2322,1534z"/>
		</g>
		<g>
			<path class="st0" d="M2799.2,1442.4h-6.8c-10.6,0-17.6-8.6-15.8-19.1l1.2-6.6c1.9-10.6,12-19.1,22.5-19.1h6.8
				c10.6,0,17.6,8.6,15.8,19.1l-1.2,6.6C2819.9,1433.9,2809.7,1442.4,2799.2,1442.4z M2799.2,1403.9c-7,0-13.8,5.7-15,12.8l-1.2,6.6
				c-1.2,7,3.5,12.8,10.5,12.8h6.8c7,0,13.8-5.7,15-12.8l1.2-6.6c1.2-7-3.5-12.8-10.5-12.8H2799.2z"/>
			<path class="st0" d="M2800.3,1431.7h-5.1c-5.1,0-8.5-4.1-7.6-9.2l0.9-5.1c0.9-5.1,5.8-9.2,10.9-9.2h5.1c4.6,0,7.8,3.3,7.8,7.7
				c0,0.8-0.7,1.6-1.6,1.7l-3.2,0.1c-0.6,0-1.1-0.4-1.2-1c-0.1-1.5-1.3-2.6-2.8-2.6h-5.1c-1.9,0-3.6,1.5-4,3.4l-0.9,5.1
				c-0.3,1.9,0.9,3.4,2.8,3.4h5.1c1.5,0,3-1,3.7-2.4c0.3-0.6,0.9-1,1.5-1h3.2c0.9,0,1.4,0.8,1.1,1.7
				C2809.2,1428.5,2804.8,1431.7,2800.3,1431.7z"/>
		</g>
	</g>
</g>
<path class="st2" d="M167.1,46.4l-68.2,58c-1.8,1.5-4.2,1.5-5.4,0l-47.8-58c-1.8-2.2-4.5-3.4-7.6-3.4h-7.8c-6.2,0-12.1,5-13.2,11.2
	l-2.3,13.1c-0.5,3.1,0.2,6,1.9,8.2l62.9,76.3c3.7,4.5,11,4.5,16.3,0l43.8-37.2c2.8-2.4,6.7-0.7,6.1,2.7l-5.5,31.1
	c-1.1,6.4,3.1,11.5,9.5,11.5h15.5c6.4,0,12.4-5.2,13.6-11.5l16.6-93.9c1.1-6.4-3.1-11.5-9.5-11.5h-10.1
	C172.8,43.1,169.6,44.3,167.1,46.4z"/>
<path class="st2" d="M315.4,159.9H202.6c-6.4,0-10.6-5.2-9.5-11.5l24.1-136.9C218.3,5.2,224.4,0,230.7,0H245
	c6.4,0,10.6,5.2,9.5,11.5l-3.2,18.4c-0.7,4.2,2.1,7.7,6.3,7.7L315,38c51.5,0.5,76.7,65.8,11.6,117.7
	C323.3,158.4,319.2,159.9,315.4,159.9z M238.8,122.6h68.7c2,0,4.1-0.8,5.8-2.2c24.2-20,14.4-44.7-5.3-44.9l-57-0.4
	c-4.3,0-8.3,3.4-9.1,7.7l-6.4,36C235.2,120.8,236.7,122.6,238.8,122.6z"/>
<path class="st2" d="M489.4,38.1l-53.5-0.3c-6.4,0-12.5,5.1-13.6,11.5l-3.2,17.9c-0.7,4.2-4.8,7.7-9,7.7h-18.2
	c-6.4,0-12.4,5.2-13.6,11.5l-10.9,61.9c-1.1,6.4,3.1,11.5,9.5,11.5h112.8c3.9,0,7.9-1.5,11.2-4.1C566,103.9,540.9,38.5,489.4,38.1z
	 M482.5,75.4c19.7,0.2,29.4,24.9,5.3,44.9c-1.7,1.4-3.8,2.2-5.8,2.2h-68.7c-2.1,0-3.5-1.7-3.2-3.8l6.4-36c0.8-4.3,4.8-7.7,9.1-7.7
	C442.6,75.1,482.5,75.4,482.5,75.4z"/>
<path class="st2" d="M23.7,109.9l19.8,23.8c8,9.7-1.8,26.3-15.5,26.3H8.1c-5.3,0-8.8-4.3-7.9-9.6l5.9-33.7
	C7.6,108.2,18.7,103.9,23.7,109.9z"/>
</svg>
